# xmcd CD database file
#
# Track frame offsets:
#	150
#	16503
#	27504
#	41267
#	58632
#	76063
#	95555
#	109833
#	123335
#	140375
#	158042
#
# Disc length: 2509 seconds
#
# Revision: 0
# Processed by: cddbd v1.5PL3 Copyright (c) Steve Scherf et al.
# Submitted via: CDex 1.51
#
DISCID=7c09cb0b
DTITLE=Youth Group - Skeleton Jar
DYEAR=2004
DGENRE=Rock
TTITLE0=Shadow Land
TTITLE1=Last Quarter
TTITLE2=Lillian Lies
TTITLE3=Why Don't Buildings Cry?
TTITLE4=Baby Body
TTITLE5=Drowned
TTITLE6=Piece Of Wood
TTITLE7=Rosie And The Sea
TTITLE8=The Frankston Line
TTITLE9=Skeleton Jar
TTITLE10=See-Saw
EXTD=YEAR: 2004
EXTT0=
EXTT1=
EXTT2=
EXTT3=
EXTT4=
EXTT5=
EXTT6=
EXTT7=
EXTT8=
EXTT9=
EXTT10=
PLAYORDER=
